<svg width="132" height="80" viewBox="0 0 132 80" fill="none" xmlns="http://www.w3.org/2000/svg">
<path fill-rule="evenodd" clip-rule="evenodd" d="M20 4.16667C14.4882 4.16667 10.3738 5.8304 7.6912 8.93687C5.06777 11.9748 4.16666 15.9904 4.16666 20V23.3333V70C4.16666 74.8115 9.64246 77.5813 13.5031 74.6643L13.5096 74.6594L19.1981 70.4014L19.2 70.4C19.5255 70.1558 19.9997 70.1702 20.3305 70.4994L20.3322 70.5011L25.8602 76.0624L25.8655 76.0678C28.1418 78.3441 31.8582 78.3441 34.1345 76.0678L32.3667 74.3L34.1345 76.0678L39.7344 70.4678C40.0287 70.1735 40.4883 70.1605 40.7757 70.3816L40.8019 70.4014L46.5019 74.6681L46.5097 74.6739C50.3448 77.5212 55.8333 74.8059 55.8333 70V39.1667H64.7333C67.9019 39.1667 70.7323 38.1532 72.7761 36.1094C74.8199 34.0657 75.8333 31.2352 75.8333 28.0667V20C75.8333 15.6375 74.0467 11.6839 71.2132 8.81114L71.2011 8.7989C68.3443 5.94213 64.3871 4.2062 60.0896 4.16678L60.0667 4.16667C60.0521 4.16667 60.0375 4.16671 60.0229 4.16677C60.0152 4.16671 60.0076 4.16667 60 4.16667H23.3333H20ZM51.8524 9.16667H23.3333H20C15.5118 9.16667 12.9595 10.4863 11.4755 12.2048C9.93222 13.9919 9.16666 16.6429 9.16666 20V23.3333V70C9.16666 70.7191 9.95127 71.0823 10.4903 70.6739L10.5018 70.6653L16.2 66.4C18.5405 64.6446 21.7986 64.8964 23.8678 66.9656L23.8731 66.9709L29.401 72.5322L29.4024 72.5336C29.7262 72.8559 30.2757 72.8555 30.599 72.5322L36.1989 66.9322L37.9667 68.7L36.1989 66.9322C38.2336 64.8975 41.4976 64.6406 43.8094 66.407L49.4902 70.6594L49.4931 70.6615C50.0578 71.0774 50.8333 70.6597 50.8333 70V36.6667V35.5V13.3667C50.8333 11.8517 51.2017 10.4244 51.8524 9.16667ZM55.8333 13.3667C55.8333 11.067 57.7254 9.17249 60.0559 9.16669C63.0173 9.19706 65.7194 10.3914 67.6595 12.3284C69.6225 14.3217 70.8333 17.0322 70.8333 20V28.0667C70.8333 30.1648 70.1801 31.6343 69.2406 32.5739C68.301 33.5135 66.8314 34.1667 64.7333 34.1667H55.8333V13.3667Z" fill="#292D32"/>
<path opacity="0.4" d="M20 30H40" stroke="#292D32" stroke-width="5" stroke-linecap="round" stroke-linejoin="round"/>
<path opacity="0.4" d="M22.5 43.3333H37.5" stroke="#292D32" stroke-width="5" stroke-linecap="round" stroke-linejoin="round"/>
<path fill-rule="evenodd" clip-rule="evenodd" d="M115.837 8.50177C115.506 8.50896 115.188 8.53792 114.885 8.58518C112.955 8.9782 111.5 10.6833 111.5 12.7V33.5H120.4C122.498 33.5 123.968 32.8468 124.907 31.9072C125.847 30.9677 126.5 29.4981 126.5 27.4V19.3333C126.5 16.3656 125.289 13.655 123.326 11.6617C121.411 9.7497 118.754 8.56132 115.837 8.50177ZM111.5 38.5H120.4C123.569 38.5 126.399 37.4865 128.443 35.4428C130.487 33.399 131.5 30.5685 131.5 27.4V19.3333C131.5 14.9708 129.713 11.0173 126.88 8.14447L126.868 8.13223C124.12 5.38439 120.354 3.67355 116.246 3.51198C116.165 3.50406 116.083 3.5 116 3.5C115.946 3.5 115.892 3.50035 115.838 3.50106C115.811 3.50067 115.783 3.50035 115.756 3.50011L115.733 3.5C115.135 3.5 114.549 3.5573 113.981 3.66677C112.355 3.93918 110.849 4.53823 109.613 5.41172C107.888 6.63116 106.5 8.55162 106.5 10.9474V12.7V36V53C106.5 54.3807 107.619 55.5 109 55.5C110.381 55.5 111.5 54.3807 111.5 53V38.5Z" fill="#292D32"/>
<path d="M101 20.3333V24.5V28.4C101 33.6667 97.6667 37 92.4 37H91C85.4772 37 81 32.5228 81 27V27V17C81 11 86.8 7 90.5 7C94.2 7 95.1 7.6 97.5 10C99.9 12.4333 100.5 15 101 20.3333Z" stroke="#292D32" stroke-width="5" stroke-miterlimit="10" stroke-linecap="round" stroke-linejoin="round"/>
</svg>
